# xmcd CD database file
#
# Track frame offsets:
#	150
#	14998
#	32318
#	47771
#	60941
#	76814
#	97225
#	110727
#	131457
#	146146
#	161547
#	176382
#	189854
#
# Disc length: 2780 seconds
#
# Revision: 0
# Processed by: cddbd v1.5.1PL0 Copyright (c) Steve Scherf et al.
# Submitted via: CDex 1.51
#
DISCID=a70ada0d
DTITLE=Pousette-Dart, Jon - I'm The Man For You
DYEAR=1998
DGENRE=Country
TTITLE0=Ready To Fly
TTITLE1=The Waiting Game
TTITLE2=Amazing To Me 
TTITLE3=I'm The Man For You 
TTITLE4=Shelflife
TTITLE5=Oklahoma
TTITLE6=It's About Time
TTITLE7=Walking To A Different Rhythm 
TTITLE8=She Looks Good To Me 
TTITLE9=Tonight
TTITLE10=Put Down Your Gun
TTITLE11=Dawn
TTITLE12=The Real Thing
EXTD=YEAR: 1998
EXTT0=
EXTT1=
EXTT2=
EXTT3=
EXTT4=
EXTT5=
EXTT6=
EXTT7=
EXTT8=
EXTT9=
EXTT10=
EXTT11=
EXTT12=
PLAYORDER=
